<?xml version="1.0" encoding="utf-8"?>
<!-- Generator: Adobe Illustrator 21.0.2, SVG Export Plug-In . SVG Version: 6.00 Build 0)  -->
<svg version="1.1" id="Layer_1" xmlns="http://www.w3.org/2000/svg" xmlns:xlink="http://www.w3.org/1999/xlink" x="0px" y="0px"
	 viewBox="0 0 415.6 216.1" style="enable-background:new 0 0 415.6 216.1;" xml:space="preserve">
<style type="text/css">
	.st0{fill:#FFFFFF;}
</style>
<g>
	<path class="st0" d="M220.2,180.7c-0.4,0-0.8,0.1-1,0.3s-0.4,0.5-0.4,0.9s0.1,0.7,0.4,0.9s0.6,0.3,1,0.3c0.5,0,0.8-0.1,1.1-0.3
		c0.2-0.2,0.4-0.5,0.4-0.9s-0.1-0.7-0.4-0.9C221,180.8,220.7,180.7,220.2,180.7z"/>
	<path class="st0" d="M208.7,40c0.1-0.1,0.2-0.3,0.2-0.5s-0.1-0.4-0.2-0.6c-0.1-0.1-0.4-0.2-0.7-0.2h-2v1.5h2
		C208.3,40.2,208.5,40.2,208.7,40z"/>
	<path class="st0" d="M208.8,43.3c0.2-0.2,0.3-0.4,0.3-0.7c0-0.7-0.4-1-1.1-1h-2v2h2C208.4,43.6,208.6,43.5,208.8,43.3z"/>
	<path class="st0" d="M198.1,56.2c-0.1-0.2-0.2-0.4-0.2-0.7c-0.1-0.2-0.1-0.4-0.2-0.5c0,0.1-0.1,0.3-0.2,0.5s-0.1,0.4-0.2,0.7
		l-0.5,1.4h1.8L198.1,56.2z"/>
	<path class="st0" d="M186,42.9c0.1,0.2,0.3,0.4,0.5,0.5s0.5,0.2,0.8,0.2s0.6-0.1,0.8-0.2c0.2-0.1,0.4-0.3,0.5-0.5s0.2-0.5,0.3-0.8
		s0.1-0.6,0.1-1s0-0.7-0.1-1s-0.2-0.6-0.3-0.8s-0.3-0.4-0.5-0.5s-0.5-0.2-0.8-0.2s-0.6,0.1-0.8,0.2c-0.2,0.1-0.4,0.3-0.5,0.5
		s-0.2,0.5-0.3,0.8s-0.1,0.6-0.1,1s0,0.7,0.1,1S185.8,42.7,186,42.9z"/>
	<path class="st0" d="M124.5,125.5c1.8,1,4,1.5,6.5,1.5s4.7-0.5,6.5-1.5s3.3-2.4,4.5-4.2c1.2-1.8,2-3.9,2.6-6.3
		c0.5-2.4,0.8-5.1,0.8-7.9s-0.3-5.4-0.8-7.9c-0.5-2.4-1.4-4.5-2.6-6.3c-1.2-1.8-2.7-3.2-4.5-4.2s-4-1.5-6.5-1.5s-4.7,0.5-6.5,1.5
		s-3.3,2.4-4.5,4.2s-2,3.9-2.6,6.3s-0.8,5.1-0.8,7.9s0.3,5.4,0.8,7.9s1.4,4.5,2.6,6.3S122.7,124.5,124.5,125.5z"/>
	<path class="st0" d="M154.8,43.8c0.4,0,0.8-0.2,1-0.6c0.2-0.4,0.4-1.1,0.4-2s-0.1-1.6-0.4-2c-0.2-0.4-0.6-0.6-1-0.6s-0.8,0.2-1,0.6
		c-0.2,0.4-0.4,1.1-0.4,2s0.1,1.6,0.4,2C154.1,43.6,154.4,43.8,154.8,43.8z"/>
	<path class="st0" d="M163.7,43.9c0.5,0,0.8-0.1,1.1-0.3c0.2-0.2,0.4-0.5,0.4-0.9s-0.1-0.7-0.4-0.9c-0.2-0.2-0.6-0.3-1-0.3
		c-0.5,0-0.8,0.1-1.1,0.3s-0.4,0.5-0.4,0.9s0.1,0.7,0.4,0.9C162.8,43.8,163.2,43.9,163.7,43.9z"/>
	<path class="st0" d="M218.9,39.8c0-0.4-0.1-0.6-0.3-0.8s-0.5-0.2-0.8-0.2h-2v2h2C218.5,40.8,218.9,40.5,218.9,39.8z"/>
	<path class="st0" d="M267.8,40.5c-0.1-0.2-0.2-0.4-0.2-0.7s-0.1-0.4-0.2-0.5c0,0.1-0.1,0.3-0.2,0.5s-0.1,0.4-0.2,0.7l-0.5,1.4h1.8
		L267.8,40.5z"/>
	<path class="st0" d="M395.6,47.4L221.9,14.7c-7.8-1.5-20.5-1.5-28.3,0L19.9,47.4c-7.8,1.5-14.2,9.1-14.2,17.1v87.2
		c0,7.9,6.4,15.6,14.2,17.1l173.7,32.7c7.8,1.5,20.5,1.5,28.3,0l173.7-32.7c7.8-1.5,14.2-9.1,14.2-17.1V64.4
		C409.8,56.5,403.4,48.9,395.6,47.4z M274.3,37.4l1.1,1.8c0.1,0.1,0.1,0.2,0.2,0.4c0.1,0.1,0.2,0.3,0.2,0.4c0.1,0.1,0.1,0.3,0.2,0.4
		c0.1,0.1,0.1,0.2,0.2,0.3c0-0.1,0.1-0.2,0.2-0.3s0.1-0.3,0.2-0.4c0.1-0.1,0.2-0.3,0.2-0.4c0.1-0.1,0.2-0.3,0.2-0.4l1.1-1.8h1.7
		l-2.9,4.7v3h-1.5v-3l-2.9-4.7H274.3z M266.7,37.4h1.5l2.9,7.7h-1.7l-0.6-1.7H266l-0.6,1.7h-1.6L266.7,37.4z M268.6,58.2
		c0-0.1-0.1-0.2-0.2-0.3s-0.3-0.2-0.5-0.2c-0.2-0.1-0.5-0.2-0.9-0.2c-0.4-0.1-0.7-0.2-1-0.3s-0.6-0.2-0.8-0.4
		c-0.2-0.2-0.4-0.4-0.5-0.6s-0.2-0.6-0.2-1s0.1-0.7,0.2-0.9c0.1-0.3,0.3-0.5,0.6-0.7s0.5-0.3,0.9-0.4c0.3-0.1,0.7-0.2,1.1-0.2
		c0.6,0,1.1,0.1,1.6,0.3s0.9,0.5,1.2,0.9l-1.1,1.1c-0.2-0.3-0.5-0.5-0.8-0.6s-0.6-0.2-1-0.2c-0.2,0-0.4,0-0.5,0.1
		c-0.1,0-0.3,0.1-0.3,0.2c-0.1,0.1-0.2,0.1-0.2,0.2c0,0.1-0.1,0.2-0.1,0.3s0,0.2,0.1,0.3c0,0.1,0.1,0.2,0.2,0.2
		c0.1,0.1,0.3,0.1,0.5,0.2s0.5,0.1,0.8,0.2c0.3,0.1,0.6,0.2,0.9,0.3s0.6,0.2,0.8,0.4c0.2,0.2,0.4,0.4,0.6,0.7s0.2,0.6,0.2,1
		s-0.1,0.7-0.2,1s-0.3,0.6-0.5,0.8s-0.6,0.4-0.9,0.5c-0.4,0.1-0.8,0.2-1.4,0.2s-1.2-0.1-1.8-0.4c-0.5-0.2-0.9-0.6-1.2-1l1.1-1
		c0.3,0.3,0.6,0.5,0.9,0.7c0.3,0.1,0.7,0.2,1.1,0.2c0.5,0,0.8-0.1,1-0.2c0.2-0.1,0.3-0.3,0.3-0.6C268.7,58.4,268.6,58.3,268.6,58.2z
		 M254.5,37.4l0.7,3.8c0,0.2,0.1,0.4,0.1,0.7c0,0.2,0.1,0.4,0.1,0.6c0-0.2,0.1-0.4,0.1-0.6c0.1-0.2,0.1-0.5,0.1-0.7l0.9-3.8h1.3
		l0.9,3.8c0,0.2,0.1,0.4,0.1,0.7c0.1,0.2,0.1,0.4,0.1,0.6c0-0.2,0-0.4,0.1-0.6c0-0.2,0.1-0.5,0.1-0.6l0.7-3.8h1.6l-1.6,7.7h-1.5
		l-0.9-4c-0.1-0.2-0.1-0.5-0.2-0.7c0-0.2-0.1-0.4-0.1-0.6c0,0.1,0,0.3-0.1,0.6c0,0.3-0.1,0.5-0.2,0.7l-1,4h-1.4l-1.6-7.7h1.7V37.4z
		 M261.5,60.8h-1.7l-0.6-1.7h-2.8l-0.6,1.7h-1.7l2.9-7.7h1.5L261.5,60.8z M247.3,55.4c0,0.1,0.1,0.2,0.2,0.2
		c0.1,0.1,0.3,0.1,0.5,0.2s0.5,0.1,0.8,0.2c0.3,0.1,0.6,0.2,0.9,0.3c0.3,0.1,0.6,0.2,0.8,0.4s0.4,0.4,0.6,0.7c0.2,0.3,0.2,0.6,0.2,1
		s-0.1,0.7-0.2,1s-0.3,0.6-0.5,0.8s-0.6,0.4-0.9,0.5c-0.4,0.1-0.8,0.2-1.4,0.2c-0.6,0-1.2-0.1-1.8-0.4c-0.5-0.2-0.9-0.6-1.2-1l1.1-1
		c0.3,0.3,0.6,0.5,0.9,0.7c0.3,0.1,0.7,0.2,1.1,0.2c0.5,0,0.8-0.1,1-0.2c0.2-0.1,0.3-0.3,0.3-0.6c0-0.1,0-0.2-0.1-0.3
		s-0.1-0.2-0.2-0.3c-0.1-0.1-0.3-0.2-0.5-0.2c-0.2-0.1-0.5-0.2-0.9-0.2c-0.4-0.1-0.7-0.2-1-0.3s-0.6-0.2-0.8-0.4s-0.4-0.4-0.5-0.6
		s-0.2-0.6-0.2-1s0.1-0.7,0.2-0.9c0.1-0.3,0.3-0.5,0.6-0.7s0.5-0.3,0.9-0.4c0.3-0.1,0.7-0.2,1.1-0.2c0.6,0,1.1,0.1,1.6,0.3
		s0.9,0.5,1.2,0.9l-1.1,1.1c-0.2-0.3-0.5-0.5-0.8-0.6s-0.6-0.2-1-0.2c-0.2,0-0.4,0-0.5,0.1c-0.1,0-0.3,0.1-0.3,0.2
		c-0.1,0.1-0.2,0.1-0.2,0.2c0,0.1-0.1,0.2-0.1,0.3C247.2,55.2,247.2,55.3,247.3,55.4z M243.8,37.4h2.4c0.5,0,1.1,0.1,1.5,0.2
		s0.9,0.4,1.2,0.7s0.6,0.7,0.8,1.2s0.3,1.1,0.3,1.8s-0.1,1.3-0.3,1.7c-0.2,0.5-0.5,0.9-0.9,1.2s-0.8,0.5-1.3,0.7
		c-0.5,0.1-1,0.2-1.4,0.2h-2.3V37.4z M237,56c0,0.1,0,0.3,0,0.5s0,0.3,0,0.5s0,0.3,0,0.4v3.4h-1.5v-7.7h1.5l2.7,4.1
		c0.1,0.1,0.2,0.3,0.3,0.5s0.2,0.3,0.2,0.4c0-0.1,0-0.2,0-0.3s0-0.3,0-0.5s0-0.3,0-0.5s0-0.3,0-0.4v-3.3h1.5v7.7h-1.4l-2.8-4.2
		c-0.1-0.1-0.2-0.3-0.3-0.5s-0.2-0.3-0.2-0.4C237,55.8,237,55.9,237,56z M236,37.4h1.5l2.9,7.7h-1.7l-0.6-1.7h-2.8l-0.6,1.7H233
		L236,37.4z M223.9,39.6c0.1-0.5,0.4-0.9,0.7-1.3c0.3-0.3,0.6-0.6,1.1-0.8c0.4-0.2,0.9-0.3,1.4-0.3s1,0.1,1.4,0.3s0.8,0.5,1.1,0.8
		s0.5,0.8,0.7,1.3s0.2,1,0.2,1.6s-0.1,1.1-0.2,1.6c-0.2,0.5-0.4,0.9-0.7,1.3c-0.3,0.3-0.6,0.6-1.1,0.8c-0.4,0.2-0.9,0.3-1.4,0.3
		s-1-0.1-1.4-0.3s-0.8-0.5-1.1-0.8s-0.5-0.8-0.7-1.3s-0.2-1-0.2-1.6C223.6,40.6,223.7,40.1,223.9,39.6z M232.1,60.8h-1.7l-0.6-1.7
		H227l-0.6,1.7h-1.6l2.9-7.7h1.5L232.1,60.8z M222.1,60.8h-1.8l-2.1-3.7l-1.2,1.5v2.3h-1.5v-7.7h1.5v2.2c0,0.1,0,0.2,0,0.3
		s0,0.2,0,0.3s0,0.2,0,0.3s0,0.2,0,0.3c0.1-0.1,0.1-0.2,0.3-0.4c0.1-0.2,0.2-0.3,0.3-0.4l2.2-2.6h1.9l-2.3,2.7L222.1,60.8z
		 M214.2,37.4h3.6c0.4,0,0.7,0,1,0.1s0.6,0.3,0.8,0.5s0.4,0.5,0.6,0.8c0.1,0.3,0.2,0.7,0.2,1.1c0,0.6-0.1,1.1-0.4,1.4
		c-0.2,0.4-0.6,0.7-1.1,0.8l1.5,3h-1.8l-1.4-2.8h-1.6v2.8h-1.5L214.2,37.4L214.2,37.4z M204.4,37.4h3.5c0.7,0,1.3,0.2,1.8,0.5
		s0.7,0.9,0.7,1.5c0,0.3-0.1,0.6-0.2,0.9c-0.1,0.3-0.3,0.5-0.6,0.6c0.3,0.1,0.6,0.3,0.8,0.6s0.3,0.6,0.3,1.1c0,0.4-0.1,0.8-0.2,1.1
		c-0.1,0.3-0.3,0.6-0.6,0.8s-0.5,0.4-0.9,0.5c-0.3,0.1-0.7,0.2-1.1,0.2h-3.5V37.4z M206.6,58.8l-0.9,3.2h-1.1l0.2-3.2H206.6z
		 M198.5,53.1l2.9,7.7h-1.7l-0.6-1.7h-2.8l-0.6,1.7H194l2.9-7.7H198.5z M193.8,43.4c0.2-0.2,0.5-0.3,0.8-0.3s0.6,0.1,0.8,0.3
		s0.3,0.4,0.3,0.8c0,0.3-0.1,0.6-0.3,0.8s-0.5,0.3-0.8,0.3s-0.6-0.1-0.8-0.3s-0.3-0.5-0.3-0.8C193.5,43.8,193.6,43.6,193.8,43.4z
		 M186.2,54.6v-1.5h6v1.5H190v6.2h-1.5v-6.2H186.2z M184.2,39.6c0.1-0.5,0.4-0.9,0.7-1.3c0.3-0.3,0.6-0.6,1.1-0.8
		c0.4-0.2,0.9-0.3,1.4-0.3s1,0.1,1.4,0.3s0.8,0.5,1.1,0.8s0.5,0.8,0.7,1.3s0.2,1,0.2,1.6s-0.1,1.1-0.2,1.6c-0.2,0.5-0.4,0.9-0.7,1.3
		c-0.3,0.3-0.6,0.6-1.1,0.8c-0.4,0.2-0.9,0.3-1.4,0.3s-1-0.1-1.4-0.3s-0.8-0.5-1.1-0.8s-0.5-0.8-0.7-1.3s-0.2-1-0.2-1.6
		S184,40.1,184.2,39.6z M181.1,53.1h1.5v7.7h-1.5V53.1z M179.2,42.5c0-0.1-0.1-0.2-0.2-0.3c-0.1-0.1-0.3-0.2-0.5-0.2
		c-0.2-0.1-0.5-0.2-0.9-0.2c-0.4-0.1-0.7-0.2-1-0.3s-0.6-0.2-0.8-0.4s-0.4-0.4-0.5-0.6s-0.2-0.6-0.2-1s0.1-0.7,0.2-0.9
		c0.1-0.3,0.3-0.5,0.6-0.7c0.2-0.2,0.5-0.3,0.9-0.4c0.3-0.1,0.7-0.2,1.1-0.2c0.6,0,1.1,0.1,1.6,0.3s0.9,0.5,1.2,0.9l-1.1,1.1
		c-0.2-0.3-0.5-0.5-0.8-0.6s-0.6-0.2-1-0.2c-0.2,0-0.4,0-0.5,0.1S177,39,177,39.1c-0.1,0.1-0.2,0.1-0.2,0.2c0,0.1-0.1,0.2-0.1,0.3
		s0,0.2,0.1,0.3c0,0.1,0.1,0.2,0.2,0.2c0.1,0.1,0.3,0.1,0.5,0.2c0.2,0.1,0.5,0.1,0.8,0.2s0.6,0.2,0.9,0.3c0.3,0.1,0.6,0.2,0.8,0.4
		s0.4,0.4,0.6,0.7c0.2,0.3,0.2,0.6,0.2,1s-0.1,0.7-0.2,1s-0.3,0.6-0.5,0.8s-0.6,0.4-0.9,0.5c-0.4,0.1-0.8,0.2-1.4,0.2
		c-0.6,0-1.2-0.1-1.8-0.4c-0.5-0.2-0.9-0.6-1.2-1l1.1-1c0.3,0.3,0.6,0.5,0.9,0.7c0.3,0.1,0.7,0.2,1.1,0.2c0.5,0,0.8-0.1,1-0.2
		s0.3-0.3,0.3-0.6C179.2,42.7,179.2,42.6,179.2,42.5z M170.8,53.1h1.5V56h3.2v-2.9h1.5v7.7h-1.5v-3.2h-3.2v3.2h-1.5V53.1z
		 M167.3,54.6l-1.4,0.7c-0.1-0.3-0.3-0.5-0.5-0.6s-0.5-0.2-0.9-0.2c-0.3,0-0.5,0.1-0.8,0.2s-0.4,0.3-0.6,0.5
		c-0.2,0.2-0.3,0.5-0.4,0.8c-0.1,0.3-0.1,0.6-0.1,1c0,0.3,0,0.7,0.1,1s0.2,0.6,0.4,0.8s0.4,0.4,0.6,0.5c0.2,0.1,0.5,0.2,0.8,0.2
		c0.4,0,0.6-0.1,0.9-0.2c0.2-0.2,0.4-0.4,0.6-0.7l1.3,0.8c-0.3,0.5-0.6,1-1.1,1.3s-1.1,0.5-1.8,0.5c-0.5,0-1-0.1-1.4-0.3
		s-0.8-0.5-1.1-0.8s-0.5-0.8-0.7-1.2c-0.2-0.5-0.2-1-0.2-1.6s0.1-1.1,0.3-1.6s0.4-0.9,0.7-1.3c0.3-0.3,0.7-0.6,1.1-0.8
		s0.9-0.3,1.4-0.3c0.4,0,0.7,0,1,0.1s0.6,0.2,0.8,0.4s0.4,0.3,0.6,0.5S167.1,54.4,167.3,54.6z M161,40.5c0.2-0.6,0.4-1.1,0.8-1.5
		c0.4-0.5,0.9-0.9,1.5-1.2s1.4-0.5,2.2-0.5l0.1,1.3c-0.9,0.1-1.7,0.3-2.2,0.7s-0.9,0.9-1.2,1.6c0.2-0.2,0.5-0.3,0.8-0.4
		c0.3-0.1,0.7-0.2,1.1-0.2c0.4,0,0.7,0,1,0.1s0.6,0.2,0.8,0.4s0.4,0.4,0.5,0.7s0.2,0.7,0.2,1.1c0,0.4-0.1,0.8-0.2,1.1
		s-0.3,0.6-0.6,0.8s-0.6,0.4-0.9,0.5c-0.4,0.1-0.8,0.2-1.2,0.2s-0.8-0.1-1.1-0.2c-0.3-0.1-0.6-0.3-0.9-0.6c-0.3-0.3-0.5-0.6-0.6-1
		s-0.2-0.8-0.2-1.4C160.7,41.6,160.8,41,161,40.5z M152.1,39.5c0.1-0.5,0.3-0.9,0.6-1.2s0.6-0.6,0.9-0.8c0.4-0.2,0.8-0.3,1.2-0.3
		s0.8,0.1,1.2,0.3s0.7,0.4,0.9,0.8c0.3,0.3,0.5,0.7,0.6,1.2s0.2,1.1,0.2,1.7c0,0.7-0.1,1.2-0.2,1.7s-0.3,0.9-0.6,1.2
		s-0.6,0.6-0.9,0.8c-0.4,0.2-0.8,0.3-1.2,0.3s-0.8-0.1-1.2-0.3s-0.7-0.4-0.9-0.8c-0.3-0.3-0.5-0.7-0.6-1.2s-0.2-1.1-0.2-1.7
		C151.9,40.6,152,40,152.1,39.5z M157.3,53.1v7.7h-1.5v-7.7H157.3z M149.6,57.5c0.1,0.2,0.1,0.4,0.1,0.6c0-0.2,0-0.4,0.1-0.6
		c0-0.2,0.1-0.5,0.1-0.6l0.7-3.8h1.6l-1.6,7.7h-1.5l-0.9-4c-0.1-0.2-0.1-0.5-0.2-0.7c0-0.2-0.1-0.4-0.1-0.6c0,0.1,0,0.3-0.1,0.6
		c0,0.3-0.1,0.5-0.2,0.7l-1,4h-1.4l-1.6-7.7h1.6l0.7,3.8c0,0.2,0.1,0.4,0.1,0.7c0,0.2,0.1,0.4,0.1,0.6c0-0.2,0.1-0.4,0.1-0.6
		c0.1-0.2,0.1-0.5,0.1-0.7l0.9-3.8h1.3l0.9,3.8C149.5,57,149.6,57.2,149.6,57.5z M146.9,41.9c-0.2-0.2-0.6-0.3-1-0.3h-0.8v-1.3h0.7
		c0.4,0,0.7-0.1,0.9-0.2c0.2-0.2,0.3-0.4,0.3-0.7s-0.1-0.5-0.3-0.7s-0.5-0.3-0.9-0.3c-0.3,0-0.6,0.1-0.9,0.2
		c-0.3,0.1-0.5,0.3-0.7,0.5l-0.9-1c0.3-0.3,0.6-0.5,1.1-0.7c0.4-0.2,0.9-0.3,1.5-0.3c0.4,0,0.8,0,1.1,0.1s0.6,0.2,0.9,0.4
		c0.2,0.2,0.4,0.4,0.6,0.6s0.2,0.6,0.2,0.9c0,0.5-0.1,0.8-0.3,1.1s-0.4,0.5-0.7,0.6c0.2,0,0.3,0.1,0.5,0.2c0.2,0.1,0.3,0.2,0.4,0.4
		c0.1,0.1,0.2,0.3,0.3,0.5s0.1,0.4,0.1,0.7c0,0.8-0.3,1.4-0.8,1.8c-0.5,0.4-1.3,0.6-2.2,0.6c-0.6,0-1.1-0.1-1.6-0.3
		s-0.9-0.5-1.2-0.9l0.9-1c0.3,0.3,0.6,0.5,0.9,0.6c0.3,0.2,0.7,0.2,1,0.2c0.5,0,0.8-0.1,1.1-0.3c0.2-0.2,0.3-0.5,0.3-0.8
		C147.3,42.4,147.2,42.1,146.9,41.9z M138,38.8c-0.2-0.2-0.5-0.2-0.8-0.2c-0.4,0-0.7,0.1-1,0.2c-0.3,0.1-0.6,0.3-0.9,0.6l-0.8-1
		c0.2-0.2,0.4-0.3,0.6-0.4c0.2-0.1,0.4-0.2,0.6-0.3c0.2-0.1,0.5-0.2,0.7-0.2c0.3-0.1,0.5-0.1,0.8-0.1c0.8,0,1.4,0.2,1.9,0.5
		c0.5,0.4,0.7,0.9,0.7,1.5c0,0.3,0,0.5-0.1,0.7s-0.2,0.4-0.3,0.6c-0.1,0.2-0.3,0.4-0.5,0.5s-0.5,0.4-0.9,0.6
		c-0.4,0.2-0.7,0.4-0.9,0.6s-0.4,0.3-0.6,0.5c-0.2,0.2-0.3,0.3-0.3,0.5c-0.1,0.1-0.1,0.3-0.2,0.5h3.8v1.3h-5.5
		c0-0.6,0.1-1.1,0.2-1.5c0.1-0.4,0.3-0.8,0.5-1.1s0.5-0.6,0.8-0.9c0.3-0.3,0.7-0.5,1.1-0.7c0.2-0.2,0.5-0.3,0.6-0.4
		c0.2-0.1,0.3-0.2,0.4-0.3s0.1-0.2,0.2-0.3c0-0.1,0-0.2,0-0.3C138.3,39.1,138.2,38.9,138,38.8z M45.1,116.7c0.8,3,2,5.6,3.6,7.8
		c1.6,2.2,3.5,3.9,5.8,5.2c2.3,1.2,4.8,1.9,7.7,1.9c3.5,0,6.4-0.8,8.6-2.3s4.4-4,6.4-7.5l13,7.7c-2.6,5.5-6.3,9.8-10.9,12.8
		c-4.7,3-10.5,4.6-17.5,4.6c-5.1,0-9.6-0.9-13.8-2.8c-4.1-1.9-7.6-4.5-10.6-8c-3-3.4-5.3-7.6-6.9-12.5c-1.6-4.9-2.4-10.4-2.4-16.4
		c0-5.9,0.8-11.2,2.5-16.1s4-9.1,7-12.5c3-3.5,6.6-6.2,10.8-8.1s8.8-2.9,13.9-2.9c3.6,0,6.9,0.4,9.8,1.3c2.9,0.8,5.6,2,7.9,3.5
		s4.3,3.3,6.1,5.4c1.7,2.1,3.2,4.4,4.5,6.9L76.1,91c-1.4-2.6-3.2-4.7-5.4-6.2c-2.2-1.5-5.1-2.2-8.6-2.2c-2.9,0-5.4,0.6-7.7,1.8
		c-2.3,1.2-4.2,2.9-5.7,5.1s-2.7,4.7-3.5,7.7S44,103.5,44,107C43.9,110.5,44.3,113.7,45.1,116.7z M110.9,130.5
		c-2.3-2.8-4.1-6.3-5.4-10.3c-1.2-4-1.8-8.4-1.8-13.2c0-4.8,0.6-9.2,1.8-13.2c1.2-4,3-7.4,5.4-10.3c2.3-2.8,5.2-5.1,8.6-6.7
		s7.2-2.4,11.6-2.4c4.3,0,8.2,0.8,11.6,2.4c3.4,1.6,6.3,3.8,8.6,6.7c2.3,2.9,4.1,6.3,5.4,10.3c1.2,4,1.8,8.4,1.8,13.2
		c0,4.8-0.6,9.2-1.8,13.2s-3,7.4-5.4,10.3c-2.3,2.9-5.2,5.1-8.6,6.7c-3.4,1.6-7.2,2.4-11.6,2.4c-4.3,0-8.2-0.8-11.6-2.4
		C116.1,135.6,113.2,133.3,110.9,130.5z M179.8,187.2h-5.5v-7.7h5.3v1.5h-3.8v1.3h2.2v1.5h-2.2v1.9h4V187.2z M180,166h-27.5l-1-2
		H180V166z M180,162h-45.9l-1-2H180V162z M180,158h-64.2l-1-2H180V158z M188.5,185.9c-0.1,0.3-0.3,0.6-0.5,0.8s-0.6,0.4-0.9,0.5
		c-0.4,0.1-0.8,0.2-1.4,0.2c-0.6,0-1.2-0.1-1.8-0.4c-0.5-0.2-0.9-0.6-1.2-1l1.1-1c0.3,0.3,0.6,0.5,0.9,0.7c0.3,0.1,0.7,0.2,1.1,0.2
		c0.5,0,0.8-0.1,1-0.2s0.3-0.3,0.3-0.6c0-0.1,0-0.2-0.1-0.3c0-0.1-0.1-0.2-0.2-0.3c-0.1-0.1-0.3-0.2-0.5-0.2
		c-0.2-0.1-0.5-0.2-0.9-0.2c-0.4-0.1-0.7-0.2-1-0.3s-0.6-0.2-0.8-0.4s-0.4-0.4-0.5-0.6c-0.1-0.3-0.2-0.6-0.2-1s0.1-0.7,0.2-0.9
		c0.1-0.3,0.3-0.5,0.6-0.7c0.2-0.2,0.5-0.3,0.9-0.4c0.3-0.1,0.7-0.2,1.1-0.2c0.6,0,1.1,0.1,1.6,0.3s0.9,0.5,1.2,0.9l-1.1,1.1
		c-0.2-0.3-0.5-0.5-0.8-0.6s-0.6-0.2-1-0.2c-0.2,0-0.4,0-0.5,0.1c-0.1,0-0.3,0.1-0.3,0.2c-0.1,0.1-0.2,0.1-0.2,0.2
		c0,0.1-0.1,0.2-0.1,0.3s0,0.2,0.1,0.3c0,0.1,0.1,0.2,0.2,0.2c0.1,0.1,0.3,0.1,0.5,0.2c0.2,0.1,0.5,0.1,0.8,0.2s0.6,0.2,0.9,0.3
		c0.3,0.1,0.6,0.2,0.8,0.4s0.4,0.4,0.6,0.7c0.2,0.3,0.2,0.6,0.2,1C188.7,185.3,188.7,185.6,188.5,185.9z M197.3,181.1h-2.2v6.2h-1.5
		v-6.2h-2.2v-1.5h6v1.5H197.3z M200.6,187.1c-0.2,0.2-0.5,0.3-0.8,0.3s-0.6-0.1-0.8-0.3s-0.3-0.5-0.3-0.8s0.1-0.6,0.3-0.8
		s0.5-0.3,0.8-0.3s0.6,0.1,0.8,0.3s0.3,0.4,0.3,0.8C200.9,186.6,200.8,186.9,200.6,187.1z M214.3,187.2h-4.9V186h1.8v-4.4h-1.6v-1
		c0.3,0,0.5,0,0.8-0.1s0.4-0.1,0.5-0.2c0.1-0.1,0.3-0.2,0.4-0.3c0.1-0.1,0.2-0.3,0.2-0.5h1.3v6.4h1.6v1.3H214.3z M207.8,167.3
		l-7.2,3.7l1.3-8l-5.8-5.7l8-1.2l3.6-7.2l3.6,7.2l8,1.2l-5.8,5.7l1.3,8L207.8,167.3z M222.9,184.1c-0.2,0.6-0.4,1.1-0.8,1.5
		c-0.4,0.5-0.9,0.9-1.5,1.2s-1.4,0.5-2.2,0.5l-0.1-1.3c0.9-0.1,1.7-0.3,2.2-0.7s0.9-0.9,1.1-1.6c-0.2,0.2-0.5,0.3-0.8,0.4
		c-0.3,0.1-0.7,0.2-1.1,0.2c-0.4,0-0.7,0-1-0.1s-0.6-0.2-0.8-0.4s-0.4-0.4-0.5-0.7s-0.2-0.7-0.2-1.1c0-0.4,0.1-0.8,0.2-1.1
		c0.1-0.3,0.3-0.6,0.6-0.8s0.6-0.4,1-0.5s0.8-0.2,1.2-0.2s0.8,0.1,1.2,0.2c0.3,0.1,0.6,0.3,0.9,0.6c0.3,0.3,0.5,0.6,0.6,1
		s0.2,0.8,0.2,1.4C223.2,183,223.1,183.6,222.9,184.1z M223,105.3c-0.8,2-15.3,30.1-15.3,30.1s-14.9-28.1-15.8-30.1
		c-0.8-2-1.5-3.6-2-4.8c0,0.6,0,1.5,0,2.7s0,2.5,0,3.9s0,3.8,0,5.1c0,1.3,0,2.4,0,3.3V139H178V75h12.3c0,0,17.5,35.1,17.7,35.6
		c0.4-1.2,17.2-35.6,17.2-35.6H238v64h-13.2v-23.5c0-0.9,0-2,0-3.3s0-3.7,0-5.1s0-2.7,0-3.9c0-1.2,0-2.1,0-2.7
		C224.5,101.6,223.9,103.2,223,105.3z M230.9,186.7c-0.5,0.5-1.3,0.7-2.2,0.7c-0.5,0-1-0.1-1.5-0.3c-0.4-0.2-0.8-0.4-1.2-0.7
		l0.8-1.1c0.3,0.2,0.6,0.4,0.9,0.5s0.7,0.2,1,0.2c0.5,0,0.9-0.1,1.1-0.4c0.2-0.2,0.3-0.6,0.3-1s-0.1-0.7-0.3-1
		c-0.2-0.2-0.5-0.3-0.9-0.3c-0.3,0-0.6,0-0.8,0.1s-0.4,0.2-0.6,0.4l-1.3-0.4l0.2-3.9h4.8v1.3h-3.5l-0.1,1.7c0.2-0.1,0.4-0.2,0.6-0.3
		c0.2-0.1,0.5-0.1,0.9-0.1c0.8,0,1.4,0.2,1.8,0.6c0.4,0.4,0.6,1,0.6,1.8C231.7,185.5,231.4,186.2,230.9,186.7z M239.4,186.7
		c-0.5,0.4-1.2,0.6-2.2,0.6c-0.6,0-1.1-0.1-1.6-0.3s-0.9-0.5-1.2-0.9l0.9-1c0.3,0.3,0.6,0.5,0.9,0.6c0.3,0.2,0.7,0.2,1,0.2
		c0.5,0,0.8-0.1,1.1-0.3c0.2-0.2,0.3-0.5,0.3-0.8c0-0.4-0.1-0.6-0.4-0.8c-0.2-0.2-0.6-0.3-1-0.3h-0.8v-1.3h0.7
		c0.4,0,0.7-0.1,0.9-0.2s0.3-0.4,0.3-0.7s-0.1-0.5-0.3-0.7s-0.5-0.3-0.9-0.3c-0.3,0-0.6,0.1-0.9,0.2c-0.3,0.1-0.5,0.3-0.7,0.5
		l-0.9-1c0.3-0.3,0.6-0.5,1.1-0.7c0.4-0.2,0.9-0.3,1.5-0.3c0.4,0,0.8,0,1.1,0.1s0.6,0.2,0.9,0.4c0.2,0.2,0.4,0.4,0.6,0.6
		c0.1,0.3,0.2,0.6,0.2,0.9c0,0.5-0.1,0.8-0.3,1.1s-0.4,0.5-0.7,0.6c0.2,0,0.3,0.1,0.5,0.2c0.2,0.1,0.3,0.2,0.4,0.4
		c0.1,0.1,0.2,0.3,0.3,0.5s0.1,0.4,0.1,0.7C240.2,185.7,239.9,186.3,239.4,186.7z M263.1,166H235v-2h29.1L263.1,166z M281.4,162H235
		v-2h47.4L281.4,162z M299.8,158H235v-2h65.8L299.8,158z M307,138h-45V75h44v12h-32v11h19v13h-19v14h33V138z M385,84h-22.8v61h-15.3
		V84h-22.1V69H385V84z"/>
	<path class="st0" d="M247.9,42.9c0.2-0.2,0.3-0.5,0.4-0.7c0.1-0.3,0.1-0.6,0.1-1c0-0.8-0.2-1.4-0.5-1.8c-0.4-0.4-0.9-0.6-1.8-0.6
		h-0.8v4.7h0.8c0.4,0,0.8-0.1,1.1-0.2C247.5,43.3,247.7,43.1,247.9,42.9z"/>
	<path class="st0" d="M257.9,55.5c-0.1-0.2-0.1-0.4-0.2-0.5c0,0.1-0.1,0.3-0.2,0.5s-0.1,0.4-0.2,0.7l-0.5,1.4h1.8l-0.5-1.4
		C258.1,55.9,258,55.7,257.9,55.5z"/>
	<path class="st0" d="M225.6,42.9c0.1,0.2,0.3,0.4,0.5,0.5s0.5,0.2,0.8,0.2s0.6-0.1,0.8-0.2c0.2-0.1,0.4-0.3,0.5-0.5
		s0.2-0.5,0.3-0.8s0.1-0.6,0.1-1s0-0.7-0.1-1s-0.2-0.6-0.3-0.8s-0.3-0.4-0.5-0.5s-0.5-0.2-0.8-0.2s-0.6,0.1-0.8,0.2
		c-0.2,0.1-0.4,0.3-0.5,0.5s-0.2,0.5-0.3,0.8s-0.1,0.6-0.1,1s0,0.7,0.1,1C225.4,42.5,225.5,42.7,225.6,42.9z"/>
	<path class="st0" d="M228.5,55.5c-0.1-0.2-0.1-0.4-0.2-0.5c0,0.1-0.1,0.3-0.2,0.5c-0.1,0.2-0.1,0.4-0.2,0.7l-0.5,1.4h1.8l-0.5-1.4
		C228.7,55.9,228.6,55.7,228.5,55.5z"/>
	<path class="st0" d="M237.1,40.5c-0.1-0.2-0.2-0.4-0.2-0.7c-0.1-0.2-0.1-0.4-0.2-0.5c0,0.1-0.1,0.3-0.2,0.5
		c-0.1,0.2-0.1,0.4-0.2,0.7l-0.5,1.4h1.8L237.1,40.5z"/>
</g>
</svg>
